# xmcd
#
# Track frame offsets:
#	150
#	9946
#	30724
#	51033
#	70651
#	86145
#	118102
#	139030
#	160958
#	182496
#	202278
#	215223
#	238487
#	257807
#	276161
#	295604
#	313116
#
# Disc length: 4275
#
# Revision: 1
# Processed by: cddbd v1.5.1PL0 Copyright (c) Steve Scherf et al.
# Submitted via: dBpowerAMP V4.0
# Normalized: r0:TRMNUM
#
DISCID=0610b111
DTITLE=Aaliyah  - One In A Million
DYEAR=2003
DGENRE=R&B
TTITLE0=Beats 4 Da Streets (Intro)
TTITLE1=Hot Like Fire
TTITLE2=One In A Million
TTITLE3=A Girl Like You
TTITLE4=If Your Girl Only Knew
TTITLE5=Choosey Lover (Old School/new School)
TTITLE6=Got To Give It Up
TTITLE7=4 Page Letter
TTITLE8=Everything's Gonna Be Alright
TTITLE9=Giving You More
TTITLE10=I Gotcha' Back
TTITLE11=Never Givin' Up
TTITLE12=Heartbroken
TTITLE13=Never Comin' Back
TTITLE14=Ladies In Da House
TTITLE15=The One I Gave My Heart To
TTITLE16=Came To Give Love (Outro)
EXTD=
EXTT0=
EXTT1=
EXTT2=
EXTT3=
EXTT4=
EXTT5=
EXTT6=
EXTT7=
EXTT8=
EXTT9=
EXTT10=
EXTT11=
EXTT12=
EXTT13=
EXTT14=
EXTT15=
EXTT16=
PLAYORDER=
